<svg width="21" height="13" viewBox="0 0 21 13" fill="none" xmlns="http://www.w3.org/2000/svg">
<path fill-rule="evenodd" clip-rule="evenodd" d="M10.5615 12.2585H11.8015C11.8015 12.2585 12.1735 12.1965 12.3595 12.0105C12.5455 11.8245 12.5455 11.4525 12.5455 11.4525C12.5455 11.4525 12.5455 9.84054 13.2895 9.59254C14.0335 9.34454 15.0255 11.2045 16.0175 11.8865C16.7615 12.4445 17.3195 12.3205 17.3195 12.3205L20.0475 12.2585C20.0475 12.2585 21.4735 12.1965 20.7915 11.0185C20.7295 10.9565 20.4195 10.2125 18.7455 8.66254C17.0095 7.05054 17.2575 7.36054 19.3035 4.57054C20.5435 2.89654 21.0395 1.90454 20.9155 1.40854C20.7915 0.974539 19.8615 1.09854 19.8615 1.09854H16.7615C16.7615 1.09854 16.5135 1.03654 16.3895 1.16054C16.2035 1.28454 16.1415 1.47054 16.1415 1.47054C16.1415 1.47054 15.6455 2.77254 15.0255 3.88854C13.6615 6.18254 13.1035 6.30654 12.9175 6.18254C12.4215 5.87254 12.5455 4.81854 12.5455 4.13654C12.5455 1.90454 12.9175 0.974538 11.8635 0.726538C11.5535 0.664538 11.3055 0.602539 10.4375 0.602539C9.32153 0.602539 8.39152 0.602539 7.89552 0.850539C7.52352 1.03654 7.27553 1.40854 7.46153 1.40854C7.64753 1.40854 8.14353 1.53254 8.39153 1.84254C8.63953 2.40054 8.63953 3.33054 8.63953 3.33054C8.63953 3.33054 8.82553 5.99654 8.20552 6.30654C7.77152 6.55454 7.21353 6.05854 5.97353 3.95054C5.35353 2.89654 4.85753 1.65654 4.85753 1.65654C4.85753 1.65654 4.79553 1.40854 4.60953 1.28454C4.42353 1.16054 4.11353 1.09854 4.11353 1.09854H1.19953C1.19953 1.09854 0.765525 1.09854 0.579525 1.28454C0.455525 1.47054 0.579525 1.78054 0.579525 1.78054C0.579525 1.78054 2.87353 7.11254 5.47753 9.84054C7.89552 12.4445 10.5615 12.2585 10.5615 12.2585Z" fill="#2A2A2A"/>
</svg>
