<svg width="25" height="25" viewBox="0 0 25 25" fill="none" xmlns="http://www.w3.org/2000/svg">
<g clip-path="url(#clip0_426_5954)">
<ellipse cx="11.888" cy="13.2185" rx="11.785" ry="11.2097" fill="#2A2A2A"/>
<path d="M10.5155 6.00851C10.6649 6.00801 10.8125 6.04098 10.9475 6.10501C11.0825 6.16903 11.2014 6.26249 11.2955 6.37851L16.1255 12.3785C16.2726 12.5574 16.353 12.7819 16.353 13.0135C16.353 13.2451 16.2726 13.4696 16.1255 13.6485L11.1255 19.6485C10.9558 19.8527 10.7119 19.9812 10.4475 20.0055C10.183 20.0299 9.91976 19.9483 9.71554 19.7785C9.51132 19.6088 9.3829 19.3649 9.35852 19.1004C9.33414 18.836 9.4158 18.5727 9.58554 18.3685L14.0555 13.0085L9.73554 7.64851C9.61326 7.50173 9.53558 7.32299 9.5117 7.13344C9.48782 6.94389 9.51874 6.75147 9.60079 6.57894C9.68285 6.40641 9.81261 6.261 9.97472 6.15991C10.1368 6.05882 10.3245 6.00628 10.5155 6.00851Z" fill="white"/>
</g>
<defs>
<clipPath id="clip0_426_5954">
<rect width="24" height="24" fill="white" transform="translate(24.0093 24.6729) rotate(-180)"/>
</clipPath>
</defs>
</svg>
