<svg width="30" height="30" viewBox="0 0 30 30" fill="none" xmlns="http://www.w3.org/2000/svg">
<path d="M5.99961 0.599609C5.86769 0.599659 5.7374 0.628707 5.61796 0.684696C5.49851 0.740686 5.39284 0.822248 5.30841 0.923609L0.808409 6.32361C0.673588 6.48528 0.599704 6.6891 0.599609 6.89961V9.59961C0.599609 11.198 1.29441 12.6362 2.39961 13.6244V28.4996C2.39961 28.7383 2.49443 28.9672 2.66321 29.136C2.832 29.3048 3.06091 29.3996 3.29961 29.3996H26.6996C26.9383 29.3996 27.1672 29.3048 27.336 29.136C27.5048 28.9672 27.5996 28.7383 27.5996 28.4996V13.6244C28.7048 12.6344 29.3996 11.198 29.3996 9.59961V6.89961V6.86721C29.3996 6.70521 29.3996 6.57561 29.1908 6.32361L24.6908 0.923609C24.6064 0.822248 24.5007 0.740686 24.3813 0.684696C24.2618 0.628707 24.1315 0.599659 23.9996 0.599609H5.99961ZM5.99961 13.1996C5.04483 13.1996 4.12916 12.8203 3.45402 12.1452C2.77889 11.4701 2.39961 10.5544 2.39961 9.59961V7.79961H9.59961V9.59961C9.59961 10.5544 9.22032 11.4701 8.54519 12.1452C7.87006 12.8203 6.95439 13.1996 5.99961 13.1996ZM14.9996 13.1996C14.0448 13.1996 13.1292 12.8203 12.454 12.1452C11.7789 11.4701 11.3996 10.5544 11.3996 9.59961V7.79961H18.5996V9.59961C18.5996 10.5544 18.2203 11.4701 17.5452 12.1452C16.8701 12.8203 15.9544 13.1996 14.9996 13.1996ZM23.9996 13.1996C23.0448 13.1996 22.1292 12.8203 21.454 12.1452C20.7789 11.4701 20.3996 10.5544 20.3996 9.59961V7.79961H27.5996V9.59961C27.5996 10.5544 27.2203 11.4701 26.5452 12.1452C25.8701 12.8203 24.9544 13.1996 23.9996 13.1996ZM5.99961 27.5996H4.19961V14.6936C5.33415 15.0958 6.57059 15.1069 7.7122 14.7253C8.8538 14.3437 9.83498 13.5912 10.4996 12.5876C10.9922 13.33 11.661 13.9388 12.4462 14.3597C13.2314 14.7806 14.1087 15.0004 14.9996 14.9996C15.8907 15.0002 16.7681 14.7801 17.5533 14.3589C18.3386 13.9377 19.0072 13.3285 19.4996 12.5858C20.1642 13.5894 21.1454 14.3419 22.287 14.7235C23.4286 15.1051 24.6651 15.094 25.7996 14.6918V27.5996H14.9996V17.6996C14.9996 17.4609 14.9048 17.232 14.736 17.0632C14.5672 16.8944 14.3383 16.7996 14.0996 16.7996H6.89961C6.66091 16.7996 6.432 16.8944 6.26321 17.0632C6.09443 17.232 5.99961 17.4609 5.99961 17.6996V27.5996ZM9.85161 5.99961H3.42201L6.42081 2.39961H11.0504L9.85161 5.99961ZM18.2504 5.99961H11.7488L12.9476 2.39961H17.0516L18.2504 5.99961ZM20.1476 5.99961L18.9488 2.39961H23.5784L26.579 5.99961H20.1476ZM7.79961 27.5996V18.5996H13.1996V27.5996H7.79961Z" fill="#2A2A2A"/>
</svg>
