<svg width="24" height="33" viewBox="0 0 24 33" fill="none" xmlns="http://www.w3.org/2000/svg">
<path d="M4.08366 0.1875C2.34199 0.1875 0.916992 1.65169 0.916992 3.44125V27.8444C0.916992 28.7074 1.25062 29.535 1.84449 30.1452C2.43835 30.7554 3.24381 31.0982 4.08366 31.0982V32.725H7.25033V31.0982H16.7503V32.725H19.917V31.0982C21.6745 31.0982 23.0837 29.6502 23.0837 27.8444V3.44125C23.0837 2.5783 22.75 1.7507 22.1562 1.1405C21.5623 0.530305 20.7568 0.1875 19.917 0.1875H4.08366ZM4.08366 3.44125H19.917V8.32188H4.08366V3.44125ZM4.08366 11.5756H19.917V16.4563H4.08366V11.5756ZM4.08366 19.71H10.417V27.8444H4.08366V19.71ZM13.5837 19.71H19.917V27.8444H13.5837V19.71ZM5.66699 21.3369V26.2175H8.83366V21.3369H5.66699ZM15.167 21.3369V26.2175H18.3337V21.3369H15.167Z" fill="#2A2A2A"/>
</svg>
