<svg width="31" height="27" viewBox="0 0 31 27" fill="none" xmlns="http://www.w3.org/2000/svg">
<path d="M30.529 12.7625L26.9665 4.4404C26.8751 4.2265 26.7229 4.04419 26.5289 3.91611C26.3349 3.78802 26.1076 3.71981 25.8752 3.71994H22.3127V1.34219C22.3127 1.02688 22.1876 0.724491 21.9649 0.501534C21.7422 0.278577 21.4402 0.15332 21.1252 0.15332H2.12521V2.53107H19.9377V17.4586C19.3966 17.7731 18.9231 18.1918 18.5444 18.6905C18.1657 19.1892 17.8894 19.758 17.7313 20.3642H10.2691C9.98006 19.2435 9.29269 18.2668 8.33583 17.6172C7.37897 16.9675 6.21831 16.6896 5.0714 16.8355C3.9245 16.9813 2.87009 17.5409 2.10583 18.4094C1.34157 19.2779 0.919922 20.3956 0.919922 21.553C0.919922 22.7105 1.34157 23.8282 2.10583 24.6967C2.87009 25.5652 3.9245 26.1248 5.0714 26.2706C6.21831 26.4165 7.37897 26.1385 8.33583 25.4889C9.29269 24.8393 9.98006 23.8626 10.2691 22.7419H17.7313C17.9897 23.7623 18.5804 24.6672 19.4102 25.3137C20.24 25.9601 21.2613 26.3111 22.3127 26.3111C23.3641 26.3111 24.3855 25.9601 25.2152 25.3137C26.045 24.6672 26.6358 23.7623 26.8941 22.7419H29.4377C29.7527 22.7419 30.0547 22.6167 30.2774 22.3937C30.5001 22.1707 30.6252 21.8684 30.6252 21.553V13.2309C30.6253 13.0699 30.5925 12.9105 30.529 12.7625ZM5.68771 23.9308C5.21798 23.9308 4.7588 23.7913 4.36824 23.5301C3.97767 23.2688 3.67326 22.8974 3.4935 22.463C3.31374 22.0285 3.26671 21.5504 3.35835 21.0892C3.44999 20.6279 3.67619 20.2043 4.00834 19.8717C4.34049 19.5392 4.76367 19.3127 5.22437 19.221C5.68508 19.1292 6.16261 19.1763 6.59659 19.3563C7.03056 19.5363 7.40149 19.841 7.66245 20.232C7.92342 20.6231 8.06271 21.0828 8.06271 21.553C8.06209 22.1835 7.81166 22.7879 7.3664 23.2337C6.92113 23.6794 6.31741 23.9302 5.68771 23.9308ZM22.3127 6.09769H25.0915L27.6375 12.0421H22.3127V6.09769ZM22.3127 23.9308C21.843 23.9308 21.3838 23.7913 20.9932 23.5301C20.6027 23.2688 20.2983 22.8974 20.1185 22.463C19.9387 22.0285 19.8917 21.5504 19.9833 21.0892C20.075 20.6279 20.3012 20.2043 20.6333 19.8717C20.9655 19.5392 21.3887 19.3127 21.8494 19.221C22.3101 19.1292 22.7876 19.1763 23.2216 19.3563C23.6556 19.5363 24.0265 19.841 24.2875 20.232C24.5484 20.6231 24.6877 21.0828 24.6877 21.553C24.6871 22.1835 24.4367 22.7879 23.9914 23.2337C23.5461 23.6794 22.9424 23.9302 22.3127 23.9308ZM28.2502 20.3642H26.8941C26.6325 19.3458 26.0408 18.4432 25.2117 17.7977C24.3826 17.1522 23.363 16.8005 22.3127 16.7976V14.4198H28.2502V20.3642Z" fill="#2A2A2A"/>
</svg>
