<svg width="30" height="33" viewBox="0 0 30 33" fill="none" xmlns="http://www.w3.org/2000/svg">
<path fill-rule="evenodd" clip-rule="evenodd" d="M16.2412 0.929209C15.8643 0.711365 15.4368 0.59668 15.0016 0.59668C14.5664 0.59668 14.1389 0.711365 13.762 0.929209L2.07454 7.68318C1.69778 7.90095 1.38488 8.21416 1.1673 8.59133C0.949714 8.9685 0.835096 9.39635 0.834961 9.83191V23.3413C0.834961 24.2277 1.30813 25.0475 2.07454 25.49L13.762 32.2454C14.1389 32.4632 14.5664 32.5779 15.0016 32.5779C15.4368 32.5779 15.8643 32.4632 16.2412 32.2454L27.9287 25.4914C28.3057 25.2735 28.6187 24.9601 28.8363 24.5826C29.0539 24.2052 29.1684 23.7771 29.1683 23.3413V9.83191C29.1682 9.39635 29.0535 8.9685 28.836 8.59133C28.6184 8.21416 28.3055 7.90095 27.9287 7.68318L16.2412 0.927791V0.929209ZM14.8245 2.77017C14.8784 2.73905 14.9395 2.72266 15.0016 2.72266C15.0638 2.72266 15.1249 2.73905 15.1787 2.77017L25.9808 9.01355L15.0016 15.359L4.02246 9.01355L14.8245 2.77017ZM2.95996 10.8573V23.3427C2.95996 23.4703 3.02796 23.5866 3.13704 23.649L13.9391 29.8924V17.2028L2.95996 10.8573ZM16.0641 29.8924L26.8662 23.649C26.9199 23.618 26.9646 23.5733 26.9957 23.5196C27.0267 23.4658 27.0432 23.4048 27.0433 23.3427V10.8559L16.0641 17.2014V29.891V29.8924Z" fill="#2A2A2A"/>
</svg>
