<svg width="35" height="27" viewBox="0 0 35 27" fill="none" xmlns="http://www.w3.org/2000/svg">
<path d="M0 4.99431C0 3.83265 0.460936 2.71856 1.28141 1.89714C2.10188 1.07573 3.21468 0.614258 4.375 0.614258H30.625C31.7853 0.614258 32.8981 1.07573 33.7186 1.89714C34.5391 2.71856 35 3.83265 35 4.99431V22.5145C35 23.6762 34.5391 24.7903 33.7186 25.6117C32.8981 26.4331 31.7853 26.8946 30.625 26.8946H4.375C3.21468 26.8946 2.10188 26.4331 1.28141 25.6117C0.460936 24.7903 0 23.6762 0 22.5145V4.99431ZM4.375 2.80428C3.79484 2.80428 3.23844 3.03502 2.8282 3.44573C2.41797 3.85644 2.1875 4.41348 2.1875 4.99431V7.18433H32.8125V4.99431C32.8125 4.41348 32.582 3.85644 32.1718 3.44573C31.7616 3.03502 31.2052 2.80428 30.625 2.80428H4.375ZM32.8125 11.5644H2.1875V22.5145C2.1875 23.0953 2.41797 23.6524 2.8282 24.0631C3.23844 24.4738 3.79484 24.7045 4.375 24.7045H30.625C31.2052 24.7045 31.7616 24.4738 32.1718 24.0631C32.582 23.6524 32.8125 23.0953 32.8125 22.5145V11.5644Z" fill="#2A2A2A"/>
</svg>
