<svg width="33" height="31" viewBox="0 0 33 31" fill="none" xmlns="http://www.w3.org/2000/svg">
<path d="M33 26.125C33 26.6773 32.5523 27.125 32 27.125H5.09375C4.55872 27.125 4.125 26.6913 4.125 26.1562C4.125 25.6212 4.55872 25.1875 5.09375 25.1875H29.9375C30.4898 25.1875 30.9375 24.7398 30.9375 24.1875V12.625C30.9375 12.0727 31.3852 11.625 31.9375 11.625H32C32.5523 11.625 33 12.0727 33 12.625V26.125Z" fill="#2A2A2A"/>
<path d="M25.8125 7.75C26.3648 7.75 26.8125 8.19772 26.8125 8.75V20.3125C26.8125 20.8648 26.3648 21.3125 25.8125 21.3125H3.0625C2.51021 21.3125 2.0625 20.8648 2.0625 20.3125V8.75C2.0625 8.19772 2.51022 7.75 3.0625 7.75H25.8125ZM28.875 6.8125C28.875 6.26022 28.4273 5.8125 27.875 5.8125H1C0.447715 5.8125 0 6.26022 0 6.8125V22.25C0 22.8023 0.447715 23.25 1 23.25H27.875C28.4273 23.25 28.875 22.8023 28.875 22.25V6.8125Z" fill="#2A2A2A"/>
<path d="M6.1875 11.625H4.125V17.4375H6.1875V19.375H14.4375C13.07 19.375 11.7585 18.8647 10.7915 17.9563C9.8245 17.0479 9.28125 15.8159 9.28125 14.5312C9.28125 13.2466 9.8245 12.0146 10.7915 11.1062C11.7585 10.1978 13.07 9.6875 14.4375 9.6875H6.1875V11.625Z" fill="#2A2A2A"/>
<path d="M22.6875 11.625V9.6875H14.4375C15.805 9.6875 17.1165 10.1978 18.0835 11.1062C19.0505 12.0146 19.5938 13.2466 19.5938 14.5312C19.5938 15.8159 19.0505 17.0479 18.0835 17.9563C17.1165 18.8647 15.805 19.375 14.4375 19.375H22.6875V17.4375H24.75V11.625H22.6875Z" fill="#2A2A2A"/>
</svg>
