<svg width="38" height="38" viewBox="0 0 38 38" fill="none" xmlns="http://www.w3.org/2000/svg">
<path d="M19 7.09375C17.8038 7.09375 16.6344 7.44848 15.6397 8.11308C14.6451 8.77768 13.8698 9.7223 13.4121 10.8275C12.9543 11.9327 12.8345 13.1488 13.0679 14.3221C13.3013 15.4953 13.8773 16.573 14.7232 17.4189C15.5691 18.2648 16.6468 18.8408 17.82 19.0742C18.9933 19.3076 20.2094 19.1878 21.3146 18.73C22.4198 18.2722 23.3644 17.497 24.029 16.5024C24.6936 15.5077 25.0483 14.3383 25.0483 13.1421C25.0483 11.538 24.4111 9.99955 23.2768 8.86527C22.1425 7.73098 20.6041 7.09375 19 7.09375ZM19 17.0793C18.2213 17.0793 17.4601 16.8484 16.8126 16.4158C16.1651 15.9831 15.6605 15.3682 15.3625 14.6488C15.0645 13.9294 14.9865 13.1377 15.1384 12.374C15.2903 11.6102 15.6653 10.9087 16.216 10.358C16.7666 9.80742 17.4681 9.43243 18.2319 9.28051C18.9956 9.1286 19.7873 9.20657 20.5067 9.50456C21.2261 9.80256 21.8411 10.3072 22.2737 10.9547C22.7063 11.6022 22.9372 12.3634 22.9372 13.1421C22.9344 14.1845 22.5184 15.1832 21.7803 15.9193C21.0422 16.6554 20.0424 17.0688 19 17.0688V17.0793Z" fill="#2A2A2A"/>
<path d="M18.9999 2.11133C15.712 2.11407 12.5589 3.41777 10.2291 5.73768C7.89926 8.05759 6.58216 11.2052 6.56543 14.493C6.56543 19.4224 9.33099 23.5497 11.3577 26.558L11.7271 27.1069C13.7435 30.0293 15.9066 32.8478 18.2082 35.5513L19.0104 36.4908L19.8127 35.5513C22.1139 32.8475 24.2771 30.0291 26.2938 27.1069L26.6632 26.5474C28.6793 23.5391 31.4449 19.4224 31.4449 14.493C31.4281 11.2034 30.1096 8.05417 27.7775 5.73396C25.4454 3.41375 22.2896 2.11129 18.9999 2.11133ZM24.9004 25.3336L24.5204 25.893C22.7049 28.6163 20.2982 31.6669 18.9999 33.1763C17.7543 31.6669 15.2949 28.6163 13.4793 25.893L13.1099 25.3336C11.2415 22.5469 8.67654 18.7363 8.67654 14.4508C8.67654 13.0951 8.94356 11.7527 9.46236 10.5002C9.98115 9.24772 10.7416 8.10968 11.7002 7.15107C12.6588 6.19246 13.7968 5.43205 15.0493 4.91326C16.3018 4.39446 17.6442 4.12744 18.9999 4.12744C20.3556 4.12744 21.698 4.39446 22.9504 4.91326C24.2029 5.43205 25.341 6.19246 26.2996 7.15107C27.2582 8.10968 28.0186 9.24772 28.5374 10.5002C29.0562 11.7527 29.3232 13.0951 29.3232 14.4508C29.3232 18.7786 26.7688 22.5891 24.9004 25.3336Z" fill="#2A2A2A"/>
</svg>
